name ./resultDataOpenSim/trcMotMarkerGrf/sub10/grf-04-04.mot
datacolumns 19
datarows 20
range 1.04000000 1.11600000
endheader

                time	     ground_force_vx	     ground_force_vy	     ground_force_vz	     ground_force_px	     ground_force_py	     ground_force_pz	   l_ground_force_vx	   l_ground_force_vy	   l_ground_force_vz	   l_ground_force_px	   l_ground_force_py	   l_ground_force_pz	     ground_torque_x	     ground_torque_y	     ground_torque_z	   l_ground_torque_x	   l_ground_torque_y	   l_ground_torque_z	
          1.04000000	          0.00000000	          0.00000000	          0.00000000	          0.00000000	          0.00000000	          0.00000000	         -0.10404569	        285.09714516	         12.26519060	          0.02706191	         -0.07500000	         -0.05126341	          0.00000000	          0.00000000	          0.00000000	          0.00000000	         -0.87852867	          0.00000000	
          1.04400000	          0.00000000	          0.00000000	          0.00000000	          0.00000000	          0.00000000	          0.00000000	          1.25551755	        281.14492398	         12.27807033	          0.02738311	         -0.07500000	         -0.05086398	          0.00000000	          0.00000000	          0.00000000	          0.00000000	         -0.92595780	          0.00000000	
          1.04800000	          0.00000000	          0.00000000	          0.00000000	          0.00000000	          0.00000000	          0.00000000	          2.68869816	        278.35590045	         12.26792831	          0.02769699	         -0.07500000	         -0.05040263	          0.00000000	          0.00000000	          0.00000000	          0.00000000	         -0.98550219	          0.00000000	
          1.05200000	          0.00000000	          0.00000000	          0.00000000	          0.00000000	          0.00000000	          0.00000000	          4.23620023	        276.69914272	         12.20277532	          0.02798543	         -0.07500000	         -0.04992276	          0.00000000	          0.00000000	          0.00000000	          0.00000000	         -1.06096480	          0.00000000	
          1.05600000	          0.00000000	          0.00000000	          0.00000000	          0.00000000	          0.00000000	          0.00000000	          5.91320296	        276.13740741	         12.05654789	          0.02822389	         -0.07500000	         -0.04945510	          0.00000000	          0.00000000	          0.00000000	          0.00000000	         -1.15539192	          0.00000000	
          1.06000000	          0.00000000	          0.00000000	          0.00000000	          0.00000000	          0.00000000	          0.00000000	          7.73095544	        276.66482935	         11.80974416	          0.02838114	         -0.07500000	         -0.04902040	          0.00000000	          0.00000000	          0.00000000	          0.00000000	         -1.27039766	          0.00000000	
          1.06400000	          0.00000000	          0.00000000	          0.00000000	          0.00000000	          0.00000000	          0.00000000	          9.69053094	        278.32925265	         11.45167254	          0.02841491	         -0.07500000	         -0.04864205	          0.00000000	          0.00000000	          0.00000000	          0.00000000	         -1.40569157	          0.00000000	
          1.06800000	          0.00000000	          0.00000000	          0.00000000	          0.00000000	          0.00000000	          0.00000000	         11.76872929	        281.21941007	         10.98833167	          0.02828246	         -0.07500000	         -0.04833820	          0.00000000	          0.00000000	          0.00000000	          0.00000000	         -1.55905824	          0.00000000	
          1.07200000	          0.00000000	          0.00000000	          0.00000000	          0.00000000	          0.00000000	          0.00000000	         13.92707901	        285.42987035	         10.45127741	          0.02797529	         -0.07500000	         -0.04809569	          0.00000000	          0.00000000	          0.00000000	          0.00000000	         -1.72686063	          0.00000000	
          1.07600000	          0.00000000	          0.00000000	          0.00000000	          0.00000000	          0.00000000	          0.00000000	         16.13207941	        291.02800597	          9.90024660	          0.02755501	         -0.07500000	         -0.04787059	          0.00000000	          0.00000000	          0.00000000	          0.00000000	         -1.90495127	          0.00000000	
          1.08000000	          0.00000000	          0.00000000	          0.00000000	          0.00000000	          0.00000000	          0.00000000	         18.35280803	        298.04516430	          9.40945860	          0.02715700	         -0.07500000	         -0.04760790	          0.00000000	          0.00000000	          0.00000000	          0.00000000	         -2.08970011	          0.00000000	
          1.08400000	          0.00000000	          0.00000000	          0.00000000	          0.00000000	          0.00000000	          0.00000000	         20.54644794	        306.49509705	          9.03974306	          0.02690888	         -0.07500000	         -0.04726722	          0.00000000	          0.00000000	          0.00000000	          0.00000000	         -2.27877048	          0.00000000	
          1.08800000	          0.00000000	          0.00000000	          0.00000000	          0.00000000	          0.00000000	          0.00000000	         22.67432502	        316.40800398	          8.82148504	          0.02684813	         -0.07500000	         -0.04685000	          0.00000000	          0.00000000	          0.00000000	          0.00000000	         -2.47141746	          0.00000000	
          1.09200000	          0.00000000	          0.00000000	          0.00000000	          0.00000000	          0.00000000	          0.00000000	         24.73232710	        327.85619344	          8.75886142	          0.02692527	         -0.07500000	         -0.04639953	          0.00000000	          0.00000000	          0.00000000	          0.00000000	         -2.66834993	          0.00000000	
          1.09600000	          0.00000000	          0.00000000	          0.00000000	          0.00000000	          0.00000000	          0.00000000	         26.74404477	        340.92760468	          8.83925991	          0.02707967	         -0.07500000	         -0.04595052	          0.00000000	          0.00000000	          0.00000000	          0.00000000	         -2.87131332	          0.00000000	
          1.10000000	          0.00000000	          0.00000000	          0.00000000	          0.00000000	          0.00000000	          0.00000000	         28.73221473	        355.67829057	          9.03250100	          0.02727800	         -0.07500000	         -0.04552245	          0.00000000	          0.00000000	          0.00000000	          0.00000000	         -3.08246188	          0.00000000	
          1.10400000	          0.00000000	          0.00000000	          0.00000000	          0.00000000	          0.00000000	          0.00000000	         30.71424247	        372.14626295	          9.28217102	          0.02751666	         -0.07500000	         -0.04508029	          0.00000000	          0.00000000	          0.00000000	          0.00000000	         -3.30355825	          0.00000000	
          1.10800000	          0.00000000	          0.00000000	          0.00000000	          0.00000000	          0.00000000	          0.00000000	         32.72280252	        390.38782456	          9.51889541	          0.02778854	         -0.07500000	         -0.04459603	          0.00000000	          0.00000000	          0.00000000	          0.00000000	         -3.53521764	          0.00000000	
          1.11200000	          0.00000000	          0.00000000	          0.00000000	          0.00000000	          0.00000000	          0.00000000	         34.82333521	        410.46559730	          9.70233052	          0.02807355	         -0.07500000	         -0.04407334	          0.00000000	          0.00000000	          0.00000000	          0.00000000	         -3.77658378	          0.00000000	
          1.11600000	          0.00000000	          0.00000000	          0.00000000	          0.00000000	          0.00000000	          0.00000000	         37.10319790	        432.41363989	          9.84172261	          0.02836557	         -0.07500000	         -0.04352759	          0.00000000	          0.00000000	          0.00000000	          0.00000000	         -4.02567056	          0.00000000	
